<svg xmlns="http://www.w3.org/2000/svg" viewBox="0 0 400 300" width="406" height="306" class="illustration styles_illustrationTablet__1DWOa"><g id="_455_easter_bunny_flatline" data-name="#455_easter_bunny_flatline"><path d="M185.72,166.59s-42-9.76-50.63-20.27c0,0-4.45-12.11-9-12.06s-4.14,6.22-4.14,6.22-7.13-7.34-10.13,0-3,14.3,0,16.83,18.77,9.28,18.77,9.28S160.47,208.67,179,210.9,185.72,166.59,185.72,166.59Z" fill="#fff"></path><path d="M180.22,211.48a11.8,11.8,0,0,1-1.31-.08c-7.8-1-18.36-8.74-31.41-23.16A261.54,261.54,0,0,1,130.32,167c-1.62-.7-15.86-6.85-18.77-9.3-3.18-2.68-3.24-9.83-.14-17.4.82-2,2-3.19,3.6-3.49,2.51-.48,5.19,1.43,6.52,2.57a7.2,7.2,0,0,1,1.58-4.34,4,4,0,0,1,3-1.27h0c4.62,0,8.78,10.71,9.37,12.31,8.5,10.23,49.88,19.93,50.3,20a.48.48,0,0,1,.37.37c.34,1.34,8.21,33-.06,42.4A7.58,7.58,0,0,1,180.22,211.48Zm-64.38-73.76a3.39,3.39,0,0,0-.64.06c-1.21.23-2.18,1.21-2.87,2.89-2.89,7.06-3,13.89-.14,16.26s18.49,9.13,18.65,9.2a.56.56,0,0,1,.21.17c.29.42,29.91,41.92,48,44.11a6.78,6.78,0,0,0,6.36-2.2c7.52-8.53.7-37.94-.08-41.21-4.09-1-42.3-10.19-50.6-20.37a.39.39,0,0,1-.08-.14c-1.21-3.27-5.07-11.73-8.47-11.73h0a3,3,0,0,0-2.3,1c-1.5,1.61-1.34,4.71-1.34,4.74a.51.51,0,0,1-.29.49.5.5,0,0,1-.56-.11S118.58,137.72,115.84,137.72Z" fill="#231f20"></path><path d="M115.57,110.06s2.16,9.24,4.67,20.57c3.77,17.05,8.33,38.83,7.51,41-1.37,3.57-3.45,4.89-5.82.47-1.45-2.71-4.74-24.38-7.07-40.72-1.45-10.28-2.54-18.45-2.54-18.45Z" fill="#231f20"></path><path d="M124.88,175.37c-1.16,0-2.3-1-3.38-3.06-1.18-2.19-3.58-15.94-7.14-40.89-1.43-10.17-2.52-18.37-2.53-18.45a.5.5,0,0,1,.16-.44l3.26-2.85a.49.49,0,0,1,.81.26c0,.09,2.19,9.38,4.67,20.58,8.52,38.56,7.74,40.59,7.48,41.26-.88,2.3-2,3.5-3.2,3.58Zm-12-62.27c.2,1.48,1.21,9,2.5,18.18,3.44,24.13,5.94,38.53,7,40.56.9,1.68,1.84,2.59,2.58,2.53s1.64-1.13,2.33-3c.28-.73.11-6.15-7.52-40.68-2.06-9.3-3.9-17.27-4.48-19.76Z" fill="#231f20"></path><path d="M115.57,110.06s2.16,9.24,4.67,20.57h0a21.88,21.88,0,0,1-5.37.71c-1.45-10.28-2.54-18.45-2.54-18.45Z" fill="#fff"></path><path d="M115.06,131.85h-.21a.5.5,0,0,1-.49-.43c-1.43-10.17-2.52-18.37-2.53-18.45a.5.5,0,0,1,.16-.44l3.26-2.85a.49.49,0,0,1,.81.26c0,.09,2.19,9.38,4.67,20.58a.52.52,0,0,1-.14.46.45.45,0,0,1-.24.14A22.8,22.8,0,0,1,115.06,131.85Zm-2.21-18.75c.2,1.46,1.18,8.8,2.44,17.75a21.75,21.75,0,0,0,4.36-.59c-2-9.09-3.8-16.83-4.37-19.28Z" fill="#231f20"></path><path d="M117,94.52c1.73,3.32,3.56,6.67,4,9.81.47,3.57-.9,6.85-6.39,9.38,0,0-4.73-.79-7.36-3.89-2-2.35-2.77-6,.62-11.66a10.38,10.38,0,0,0-.73-12.08S113.23,87.42,117,94.52Z" fill="#fff"></path><path d="M114.53,114.2h-.08c-.2,0-5-.86-7.66-4.06s-2.44-7.22.57-12.24a9.85,9.85,0,0,0-.67-11.49.5.5,0,0,1,.48-.82c.26.06,6.44,1.48,10.22,8.7h0l.3.57c1.63,3.13,3.33,6.36,3.73,9.4.57,4.33-1.62,7.56-6.68,9.9A.52.52,0,0,1,114.53,114.2ZM108.33,87a10.74,10.74,0,0,1-.12,11.39c-2.76,4.6-3,8.33-.66,11.08s6.11,3.53,6.91,3.69c4.58-2.15,6.48-5,6-8.8-.38-2.86-2-6-3.62-9.06l-.31-.58A16.5,16.5,0,0,0,108.33,87Z" fill="#231f20"></path><path d="M117,94.52c1.73,3.32,3.56,6.67,4,9.81-2.11-.88-3.68-3.11-5.35-4.86-.34-.35-.8-.72-1.28-.6-1.05.26-.34,1.89-.55,2.95a1.56,1.56,0,0,1-2.49.77c-.26-.25-.44-.61-.76-.75-1.15-.47-1.71,4.53-3.32,8-2-2.35-2.77-6,.62-11.66a10.38,10.38,0,0,0-.73-12.08S113.23,87.42,117,94.52Z" fill="#fcd268"></path><path d="M107.17,110.32a.46.46,0,0,1-.38-.18c-2.63-3.11-2.44-7.22.57-12.24a9.86,9.86,0,0,0-.67-11.49.51.51,0,0,1-.06-.59.52.52,0,0,1,.54-.23c.26.06,6.44,1.47,10.22,8.7h0l.3.57c1.64,3.13,3.33,6.36,3.73,9.4a.51.51,0,0,1-.19.46.5.5,0,0,1-.5.07,13,13,0,0,1-4.37-3.7c-.39-.43-.77-.87-1.16-1.27s-.61-.51-.78-.46-.26.3-.19,1.19a5.24,5.24,0,0,1,0,1.37,1.94,1.94,0,0,1-1.38,1.43,2,2,0,0,1-1.95-.4c-.1-.1-.19-.21-.28-.32a2,2,0,0,0-.27-.29,12.13,12.13,0,0,0-1.14,3.1,32.83,32.83,0,0,1-1.59,4.59.5.5,0,0,1-.38.29ZM108.34,87a10.75,10.75,0,0,1-.12,11.38c-2.55,4.24-2.94,7.74-1.17,10.41.48-1.18.85-2.49,1.2-3.66.65-2.25,1-3.44,1.71-3.77a.86.86,0,0,1,.72,0,1.9,1.9,0,0,1,.71.62l.21.24a1,1,0,0,0,1,.16,1,1,0,0,0,.7-.68,4.44,4.44,0,0,0,0-1.09c-.07-.83-.17-2,.93-2.24a1.92,1.92,0,0,1,1.76.74c.39.41.78.85,1.18,1.3a16.25,16.25,0,0,0,3.14,3,34.93,34.93,0,0,0-3.45-8.08l-.3-.58A16.41,16.41,0,0,0,108.34,87Z" fill="#231f20"></path><ellipse cx="189.17" cy="254.85" rx="70.71" ry="8.54" fill="#e6e7e8"></ellipse><path d="M242.79,189.38c-5.86-24.67-24.15-31.8-24.15-31.8l-45.9,7.88a62.26,62.26,0,0,0-16.89,38.3,74.4,74.4,0,0,0,1.05,17.37,37.78,37.78,0,0,0-17,15.35s-15.56-24.6-26.34-22.87c-18.93,3,5.86,38.76,20.9,47.59,7.2,4.22,59.28-8.36,71.39-5,2.24.62,27.75-10.77,27.75-10.77S248.64,214,242.79,189.38Z" fill="#fff"></path><path d="M140.26,262.56c-2.84,0-5-.27-6.09-.93-11.54-6.77-30-30.67-27.81-42.26.66-3.5,3-5.6,7.08-6.25,10.08-1.61,23.73,18.33,26.4,22.41a38,38,0,0,1,16.51-14.68,74.73,74.73,0,0,1-1-17.12c1.49-23.57,16.89-38.48,17.05-38.63a.58.58,0,0,1,.26-.13l45.89-7.88a.42.42,0,0,1,.27,0c.18.07,18.61,7.51,24.45,32.14s-9.11,56.07-9.27,56.38a.47.47,0,0,1-.24.24c-4.29,1.92-25.8,11.44-28.09,10.8-5.9-1.64-21.69.61-37,2.78C157.61,261,146.94,262.56,140.26,262.56ZM114.65,214a6,6,0,0,0-1.05.08c-3.58.58-5.69,2.41-6.26,5.45-.93,5,2.16,13,8.48,22.11,5.74,8.26,13.15,15.76,18.85,19.11,3.48,2,18.94-.16,33.89-2.29,15.38-2.19,31.27-4.46,37.38-2.76,1.41.35,15-5.22,27.24-10.67,1.16-2.48,14.65-32.26,9.12-55.56-5.47-23.05-22.12-30.71-23.72-31.39L173,165.93c-1.36,1.35-15.23,15.72-16.64,37.86a74.45,74.45,0,0,0,1,17.26.49.49,0,0,1-.27.53,37,37,0,0,0-16.83,15.14.48.48,0,0,1-.42.25.47.47,0,0,1-.43-.23C139.29,236.51,124.94,214,114.65,214Zm118.91,31.41h0Z" fill="#231f20"></path><path d="M213.18,163.6c-5.11-3.46-11.39-3.71-17.08-1.53-13.57,5.22-22.75,17.14-26,31.05-2.38,10.11-3.55,21.61-.36,31.61,3.28,10.3,7.5,16,18.1,18.72,10.32,2.69,21.78,1.67,30.95-4,22.45-13.82,18-44.38,5.68-63.39C221.38,171.34,217.84,166.77,213.18,163.6Z" fill="#e6e7e8"></path><path d="M267.18,89c11.9-18.4,21.79-47.61.84-46.48-15.94.86-33.61,32.82-41.17,48.08a37.61,37.61,0,0,0-31.16-7.32c0-17-1.55-53.52-15.44-61.39-18.25-10.34-27.36,2-24.9,23.75C156.85,59,168.18,89,172.86,96.06a62.43,62.43,0,0,0-16.7,29.66c-5.91,25.17,8.16,42.7,34.5,48.89s46.74-3.23,52.66-28.41a62.34,62.34,0,0,0-1.74-34C248.93,108,259.87,100.28,267.18,89Z" fill="#fff"></path><path d="M205.52,176.93a65.75,65.75,0,0,1-15-1.84c-13.29-3.12-23.53-9.18-29.63-17.51-6.31-8.63-8.12-19.69-5.23-32A62.59,62.59,0,0,1,172.22,96c-5-7.88-15.89-37.16-17.37-50.32-1.43-12.73,1.1-22.25,6.94-26.1,4.66-3.08,11.13-2.44,18.71,1.86,5.87,3.33,15.7,15.71,15.69,61.21a38.19,38.19,0,0,1,30.49,7.16C246.94,49.07,261.25,42.36,268,42c5.31-.28,9,1.33,11.05,4.79,5,8.57-2,27.85-11.44,42.46l-.42-.27.42.27c-7.15,11.06-17.69,18.69-25.42,23.2a62.48,62.48,0,0,1,1.62,33.88c-2.88,12.28-9.43,21.37-18.92,26.29A41.79,41.79,0,0,1,205.52,176.93Zm-37-158.28a10.94,10.94,0,0,0-6.15,1.75c-5.51,3.64-7.88,12.81-6.49,25.16,1.49,13.25,12.62,43,17.44,50.23a.5.5,0,0,1-.07.63,61.51,61.51,0,0,0-16.56,29.41c-2.82,12-1.07,22.77,5.07,31.16,5.95,8.14,16,14.06,29.05,17.13s24.69,2.24,33.65-2.39c9.23-4.78,15.6-13.65,18.41-25.64a61.49,61.49,0,0,0-1.72-33.71.51.51,0,0,1,.22-.6c7.66-4.42,18.28-12,25.44-23.08h0c9.28-14.36,16.18-33.19,11.41-41.42C276.37,44.17,273,42.72,268,43c-15.84.85-33.77,33.71-40.74,47.8a.51.51,0,0,1-.34.27.53.53,0,0,1-.42-.1,37.12,37.12,0,0,0-30.75-7.23.46.46,0,0,1-.42-.1.49.49,0,0,1-.18-.38c0-15.72-1.38-53.13-15.18-60.95C175.73,19.87,171.84,18.65,168.48,18.65Z" fill="#231f20"></path><path d="M189.2,85.65s-2.9-50.49-13.33-55.46-11.53,6.12-10.49,16.71S180,91.9,180,91.9,185.66,85.16,189.2,85.65Z" fill="#e6e7e8"></path><path d="M231.4,96s23.3-43.06,34.86-42.86,7.6,10.61,1.95,19.63-31.16,32.59-31.16,32.59S234.79,97.09,231.4,96Z" fill="#e6e7e8"></path><path d="M212.92,216.31s25,.81,36.11,20.3c0,0,13.33-24.19,24.21-23.37,5.79.43,7.28,8.71,4.13,14-3.38,5.63-22.9,34.14-22.9,34.14S205.1,246,193,249.36,212.92,216.31,212.92,216.31Z" fill="#fff"></path><path d="M254.47,261.84l-.15,0c-.49-.15-49.37-15.25-61.19-12-1.57.44-2.61.26-3.09-.51-2.71-4.31,18.27-28.54,22.5-33.35a.52.52,0,0,1,.39-.17c.25,0,24.8,1,36.09,19.81,2.42-4.2,14.21-23.64,24.26-22.88a6.19,6.19,0,0,1,5.11,3.54,12.08,12.08,0,0,1-.59,11.17c-3.35,5.58-22.72,33.88-22.92,34.17A.49.49,0,0,1,254.47,261.84Zm-56.86-13.46c16,0,52.36,11.05,56.66,12.37,2.11-3.08,19.53-28.57,22.68-33.81a11.16,11.16,0,0,0,.55-10.2,5.19,5.19,0,0,0-4.29-3c-10.47-.8-23.61,22.89-23.74,23.12a.51.51,0,0,1-.44.26.46.46,0,0,1-.43-.25c-10.24-18-32.92-19.89-35.47-20-9.61,11-24,29.16-22.25,32,.29.47,1.37.25,2,.08A18.57,18.57,0,0,1,197.61,248.38Z" fill="#231f20"></path><ellipse cx="185.01" cy="118.4" rx="5.44" ry="2.25" transform="translate(27.42 271.41) rotate(-76.77)" fill="#231f20"></ellipse><ellipse cx="218.07" cy="126.17" rx="5.44" ry="2.25" transform="translate(45.35 309.58) rotate(-76.77)" fill="#231f20"></ellipse><path d="M205.75,132.84c-.45,1.92-3.26,3.77-6,3.11s-4.46-3.55-4-5.47,2.87-2.12,5.64-1.47S206.2,130.92,205.75,132.84Z" fill="#231f20"></path><path d="M210.77,146.42a10,10,0,0,1-2.5-.32A15.31,15.31,0,0,1,199.1,140c-1.06,1.11-4.14,2.93-12.38,1-3.48-.8-5.9-2.4-7.2-4.76a10.47,10.47,0,0,1-.55-7.85.48.48,0,0,1,.63-.3.5.5,0,0,1,.31.63s-1.3,3.82.48,7.05c1.16,2.1,3.36,3.53,6.55,4.26,10.07,2.3,11.73-1.14,11.74-1.17a.5.5,0,0,1,.9,0s2.39,4.6,8.93,6.27,11.92-4.63,12-4.7a.5.5,0,0,1,.75.65C221,141.33,216.64,146.42,210.77,146.42Z" fill="#231f20"></path><path d="M199.09,139.1H199a.5.5,0,0,1-.37-.6l.63-2.65a.48.48,0,0,1,.6-.37.5.5,0,0,1,.37.6l-.63,2.65A.48.48,0,0,1,199.09,139.1Z" fill="#231f20"></path><path d="M259.69,233.42c-7.14,9.76-13.14,20.65-7.14,22.76,2.92,1,26.38-34.66,23.47-38.28C274.52,216,270,219.31,259.69,233.42Z" fill="#e6e7e8"></path><path d="M216,105.67a2.39,2.39,0,0,1-.53-.06,2.83,2.83,0,0,1-2-2.61,4.91,4.91,0,0,1,.09-1.27l-.37.35A14.71,14.71,0,0,1,210,104.7a5.68,5.68,0,0,1-4.2.45,3.46,3.46,0,0,1-2.11-1.7,4.63,4.63,0,0,1-.22-3.28,22.67,22.67,0,0,1-4.67,3,10,10,0,0,1-7.25.7,2.55,2.55,0,0,1-1.38-1,2.67,2.67,0,0,1,.13-2.48c2-4.41,6.27-7.51,9.68-10a.48.48,0,0,1,.69.1.5.5,0,0,1-.1.7c-3.49,2.55-7.44,5.45-9.36,9.62-.33.71-.39,1.21-.19,1.53a1.63,1.63,0,0,0,.85.53,9,9,0,0,0,6.51-.66,27.46,27.46,0,0,0,5.72-3.91.51.51,0,0,1,.61,0,.5.5,0,0,1,.18.58c-.49,1.41-.92,2.89-.32,4a2.51,2.51,0,0,0,1.53,1.2,4.7,4.7,0,0,0,3.43-.37,14.07,14.07,0,0,0,3.06-2.46c.55-.53,1.12-1.08,1.73-1.57a.5.5,0,0,1,.61,0,.5.5,0,0,1,.18.57,6.45,6.45,0,0,0-.55,2.59,1.85,1.85,0,0,0,1.21,1.71,2.57,2.57,0,0,0,1.88-.58,12.23,12.23,0,0,0,4.88-6.29.51.51,0,0,1,.64-.31.49.49,0,0,1,.31.63,13.2,13.2,0,0,1-5.28,6.8A4,4,0,0,1,216,105.67Z" fill="#d1d3d4"></path><path d="M223.27,89.6s-9.33,3.32-18.66-.48a22,22,0,0,1-4.47-2.42c-.42-.29-.84-.61-1.26-1l1.66-4.14,1.32-3.29,2.76-6.87L206,67.94l3.08-7.7,1.66-4.13,5-12.57,1.4,8.64.54,3.31.9,5.54.55,3.41.78,4.85.56,3.42,1,6.22.55,3.38Z" fill="#fcd268"></path><path d="M215.81,43.54l1.4,8.64.54,3.31.9,5.54.55,3.41.78,4.85.56,3.42,1,6.22.55,3.38,1.18,7.29a29.3,29.3,0,0,1-8.92,1.34,25.86,25.86,0,0,1-9.74-1.82,22,22,0,0,1-4.47-2.42c-.42-.29-.84-.61-1.26-1l1.66-4.14,1.32-3.29,2.76-6.87L206,67.94l3.08-7.7,1.66-4.13,5-12.57m0-1a1,1,0,0,0-.92.62l-5,12.57-1.65,4.14-3.09,7.7-1.41,3.51L200.93,78l-1.32,3.29L198,85.38a1,1,0,0,0,.31,1.15c.48.39.9.71,1.31,1a23.09,23.09,0,0,0,4.67,2.53,26.79,26.79,0,0,0,10.11,1.89,30.09,30.09,0,0,0,9.26-1.4,1,1,0,0,0,.65-1.1l-1.18-7.29-.55-3.38-1-6.21L221,69.13l-.78-4.85-.55-3.41-.91-5.54L218.2,52l-1.4-8.65a1,1,0,0,0-.88-.84Z" fill="#231f20"></path><path d="M222.09,82.31a39.43,39.43,0,0,1-17.48,6.81,22,22,0,0,1-4.47-2.42A42.45,42.45,0,0,0,215,83.07a30.71,30.71,0,0,0,6.57-4.14Z" fill="#fff"></path><path d="M220.54,72.71a46.37,46.37,0,0,1-20,8.9l1.32-3.29a43.15,43.15,0,0,0,18.12-9Z" fill="#fff"></path><path d="M219.2,64.44c-.76.59-1.56,1.14-2.36,1.67a40.89,40.89,0,0,1-12.22,5.34L206,67.94a36.44,36.44,0,0,0,9.29-4.41,38.56,38.56,0,0,0,3.33-2.5Z" fill="#fff"></path><path d="M217.75,55.49l-.7.47a53.29,53.29,0,0,1-6.92,3.78l-1,.5,1.66-4.13a43.72,43.72,0,0,0,4.75-2.71c.58-.38,1.15-.79,1.69-1.22Z" fill="#fff"></path><path d="M285.22,225.59a76.8,76.8,0,0,1-2.85,13.67,54.78,54.78,0,0,1-9.32,18.23,40.34,40.34,0,0,1-27.13,15.25,49.22,49.22,0,0,1-14.84-.48,58.35,58.35,0,0,1-6.91-1.68,60.6,60.6,0,0,1-6.66-2.5,49.41,49.41,0,0,1-12.21-7.7A40.46,40.46,0,0,1,191.09,231a52.24,52.24,0,0,1,1.08-13c.05-.25.1-.5.17-.75q.56-2.62,1.4-5.34a76.78,76.78,0,0,1,3.63-9.42,83.11,83.11,0,0,1,20.8-27.61A63.6,63.6,0,0,1,230,166.74c7.86-4.1,16.12-5.93,24-4.52a28.67,28.67,0,0,1,3.38.82,29.25,29.25,0,0,1,3.31,1.25,28.33,28.33,0,0,1,2.74,1.41,34.67,34.67,0,0,1,9,7.71,49,49,0,0,1,6.7,10.64,64.3,64.3,0,0,1,3.24,8.41A82.37,82.37,0,0,1,285.22,225.59Z" fill="#fff"></path><path d="M248.63,161.75a29.89,29.89,0,0,1,5.35.47,28.67,28.67,0,0,1,3.38.82,29.25,29.25,0,0,1,3.31,1.25,28.33,28.33,0,0,1,2.74,1.41,34.67,34.67,0,0,1,9,7.71,49,49,0,0,1,6.7,10.64,64.3,64.3,0,0,1,3.24,8.41,82.37,82.37,0,0,1,2.85,33.13,76.8,76.8,0,0,1-2.85,13.67,54.78,54.78,0,0,1-9.32,18.23,40.34,40.34,0,0,1-27.13,15.25,45.21,45.21,0,0,1-5.73.35,51.71,51.71,0,0,1-9.11-.83,58.35,58.35,0,0,1-6.91-1.68,60.6,60.6,0,0,1-6.66-2.5,49.41,49.41,0,0,1-12.21-7.7A40.46,40.46,0,0,1,191.09,231a52.24,52.24,0,0,1,1.08-13c.05-.25.1-.5.17-.75q.56-2.62,1.4-5.34a76.78,76.78,0,0,1,3.63-9.42,83.11,83.11,0,0,1,20.8-27.61A63.6,63.6,0,0,1,230,166.74a40.5,40.5,0,0,1,18.61-5m0-1h0a41.29,41.29,0,0,0-19.07,5.11,64.35,64.35,0,0,0-12,8.25,84.46,84.46,0,0,0-21.06,27.95,79,79,0,0,0-3.68,9.55c-.57,1.85-1,3.67-1.41,5.39a8.1,8.1,0,0,0-.18.79,53.13,53.13,0,0,0-1.1,13.3,41.43,41.43,0,0,0,14.55,30A50.42,50.42,0,0,0,217.11,269a62.86,62.86,0,0,0,6.77,2.54,58.9,58.9,0,0,0,7,1.71,52.69,52.69,0,0,0,9.28.85,47.16,47.16,0,0,0,5.86-.36,41.38,41.38,0,0,0,27.78-15.62,56,56,0,0,0,9.5-18.56,78.36,78.36,0,0,0,2.88-13.84,83.81,83.81,0,0,0-2.88-33.54,65.62,65.62,0,0,0-3.3-8.54,49.78,49.78,0,0,0-6.83-10.86,35.7,35.7,0,0,0-9.29-7.93,30.33,30.33,0,0,0-2.83-1.46,30,30,0,0,0-3.42-1.29,29.49,29.49,0,0,0-3.5-.85,31.51,31.51,0,0,0-5.53-.49Z" fill="#231f20"></path><path d="M272.43,173.41a4.74,4.74,0,0,1-.37.51c-2.37,2.9-6.83,4.22-7.79,7.84-.61,2.3.48,4.67.83,7s-.7,5.42-3.07,5.52c-.82,0-1.62-.3-2.42-.18-2,.28-2.57,2.88-2.64,4.91q-.32,8.37-.61,16.73c-.08,2.22-.2,4.56-1.37,6.46s-3.77,3.11-5.7,2c-1.47-.86-2-2.67-2.82-4.17s-2.53-2.92-4.07-2.2a3.91,3.91,0,0,0-1.66,2.18c-4.68,11.15-4.48,23.76-8.21,35.26-1,3.12-3.3,6.74-6.53,6.17-2.8-.5-4-3.82-4.48-6.63a72.94,72.94,0,0,1-1-16.23c.28-5.73,1.18-11.8-1.31-17-.31-.64-.8-1.35-1.51-1.36s-1.27.76-1.55,1.46c-1.39,3.34-1.11,7.17-2.36,10.56s-5.36,6.33-8.37,4.32c-1.9-1.27-2.34-3.82-2.56-6.09-.15-1.62-.06-20-2.72-19.24-2.25.66-5.13,4.39-7.81,6q.56-2.62,1.4-5.34a76.78,76.78,0,0,1,3.63-9.42,83.11,83.11,0,0,1,20.8-27.61A63.6,63.6,0,0,1,230,166.74c7.86-4.1,16.12-5.93,24-4.52a28.67,28.67,0,0,1,3.38.82,29.25,29.25,0,0,1,3.31,1.25,28.33,28.33,0,0,1,2.74,1.41A34.67,34.67,0,0,1,272.43,173.41Z" fill="#fcd268"></path><path d="M145.71,249.86a.49.49,0,0,1-.48-.36c-2.38-8.43-5.72-12.67-5.76-12.71a.5.5,0,0,1,.08-.7.5.5,0,0,1,.7.08c.14.17,3.5,4.42,5.94,13.06a.5.5,0,0,1-.35.61Z" fill="#231f20"></path><path d="M142.23,251.18c-2.4-9.52-8.07-17.94-14.73-25.14-2.68-2.89-5.75-5.74-9.6-6.53-4.17-.85-7.22,2-6.7,6.21a15.83,15.83,0,0,0,2.12,5.57c5.08,9.24,12.6,16.76,19.62,24.51a12.88,12.88,0,0,0,2.94,2.63C141,261.41,143.25,255.2,142.23,251.18Z" fill="#e6e7e8"></path><path d="M112.42,135.68a2.07,2.07,0,0,0-1.17.85,19.72,19.72,0,0,0-4.13,16.24,9.08,9.08,0,0,0,1.11,3.09,11.48,11.48,0,0,0,4.65,3.67c1.88,1,4.37,1.9,6,.48a5.46,5.46,0,0,0,1.29-3.51l1-8.68c.29-2.55.63-6.34-1.08-8.54C118.85,137.79,114.16,135.4,112.42,135.68Z" fill="#fff"></path><path d="M116.77,161.24a9.12,9.12,0,0,1-4.13-1.27c-1.91-1-3.73-2.08-4.83-3.85a9.65,9.65,0,0,1-1.18-3.25,20.13,20.13,0,0,1,4.23-16.66,2.5,2.5,0,0,1,1.48-1h0c1.89-.31,6.79,2.15,8.06,3.78,1.92,2.46,1.44,6.65,1.19,8.91l-1,8.67c-.12,1.11-.31,2.8-1.45,3.82A3.43,3.43,0,0,1,116.77,161.24Zm-4-25.08h-.26c-.3,0-.56.3-.87.67a19.08,19.08,0,0,0-4,15.82,8.45,8.45,0,0,0,1,2.92,11.12,11.12,0,0,0,4.46,3.51c2.5,1.32,4.31,1.51,5.38.54a4.88,4.88,0,0,0,1.13-3.2l1-8.68c.24-2.11.68-6-1-8.18C118.61,138.29,114.5,136.16,112.76,136.16Zm-.34-.48h0Z" fill="#231f20"></path><path d="M115.45,233.11v31.51c0,3.8,11.13,6.88,24.85,6.88s24.85-3.08,24.85-6.88V233.11Z" fill="#fff"></path><path d="M140.3,272c-12.46,0-25.35-2.75-25.35-7.37V233.11a.5.5,0,0,1,.5-.5h49.7a.5.5,0,0,1,.5.5v31.51C165.65,269.24,152.76,272,140.3,272ZM116,233.6v31c0,3.08,9.78,6.38,24.35,6.38s24.35-3.3,24.35-6.38v-31Z" fill="#231f20"></path><path d="M140,266a70.43,70.43,0,0,1-18.15-2.45.49.49,0,0,1-.35-.48V244.52a.49.49,0,0,1,.19-.39.48.48,0,0,1,.43-.09c21,5.38,37.21-.31,37.37-.37a.48.48,0,0,1,.45.06.49.49,0,0,1,.22.41v17.07a.5.5,0,0,1-.27.44C153.68,265,146.47,266,140,266Zm-17.5-3.3c2.86.79,22.31,5.7,36.66-1.82V244.83a71.76,71.76,0,0,1-36.66.33Z" fill="#d1d3d4"></path><ellipse cx="140.3" cy="233.11" rx="24.85" ry="6.87" fill="#fff"></ellipse><path d="M140.3,240.48c-12.46,0-25.35-2.76-25.35-7.37s12.89-7.38,25.35-7.38,25.35,2.76,25.35,7.38S152.76,240.48,140.3,240.48Zm0-13.75c-14.57,0-24.35,3.3-24.35,6.38s9.78,6.37,24.35,6.37,24.35-3.3,24.35-6.37S154.87,226.73,140.3,226.73Z" fill="#231f20"></path><path d="M159.69,233.11c0,.6-.59,1.19-1.65,1.7a12.24,12.24,0,0,1-1.5.61c-3.46,1.16-9.44,1.92-16.24,1.92s-12.79-.76-16.25-1.92a13.25,13.25,0,0,1-1.5-.61c-1-.52-1.63-1.1-1.63-1.7,0-2.33,8.67-4.24,19.38-4.24S159.69,230.78,159.69,233.11Z" fill="#fff"></path><path d="M140.3,237.83c-6.64,0-12.78-.72-16.41-1.94a14.29,14.29,0,0,1-1.56-.64c-1.27-.63-1.91-1.35-1.91-2.14,0-3.08,10.24-4.74,19.88-4.74s19.89,1.66,19.89,4.74c0,.55-.34,1.38-1.94,2.14a12.59,12.59,0,0,1-1.55.64C153.06,237.11,146.93,237.83,140.3,237.83Zm0-8.47c-11.7,0-18.88,2.18-18.88,3.75,0,.36.49.82,1.35,1.25a12.93,12.93,0,0,0,1.44.59c3.53,1.18,9.55,1.89,16.09,1.89s12.54-.71,16.08-1.9a10.82,10.82,0,0,0,1.44-.58c.86-.41,1.37-.88,1.37-1.25C159.19,231.54,152,229.36,140.3,229.36Z" fill="#231f20"></path><path d="M156.54,235.42c-3.46,1.16-9.44,1.92-16.24,1.92s-12.79-.76-16.25-1.92c3.46-1.16,9.44-1.92,16.25-1.92S153.08,234.26,156.54,235.42Z" fill="#fcd268"></path><path d="M140.3,237.84c-6.64,0-12.78-.73-16.41-2a.5.5,0,0,1,0-.95c3.63-1.22,9.77-1.94,16.41-1.94s12.76.72,16.4,1.94a.5.5,0,0,1,0,.95C153.06,237.11,146.93,237.84,140.3,237.84Zm-14.45-2.42a64.5,64.5,0,0,0,14.45,1.42,64.31,64.31,0,0,0,14.43-1.42A63.73,63.73,0,0,0,140.3,234,63.92,63.92,0,0,0,125.85,235.42Z" fill="#231f20"></path><path d="M140.3,245.6c0,.41.07.94.47,1s.76-.51.82-1,.18-1.1.66-1.17l0,6.7a44.76,44.76,0,0,0,.32,6.65,3.1,3.1,0,0,0,.52,1.5,1.16,1.16,0,0,0,1.43.36,1.38,1.38,0,0,0,.43-.5,8.62,8.62,0,0,0,.69-4.63,76.28,76.28,0,0,1,.27-9.07,1.6,1.6,0,0,1,.52-1.28,1.14,1.14,0,0,1,1.3.16,4.46,4.46,0,0,1,.86,1.11,8.89,8.89,0,0,0,1.34,1.6,1.07,1.07,0,0,0,1,.41c.61-.2.46-1.08.29-1.7-.88-3.25,1.23-6.7.55-10a1.38,1.38,0,0,0-.67-1.06,1.55,1.55,0,0,0-.8,0c-2.71.49-5.56.57-8.31.84a2.05,2.05,0,0,0-.89.22,1.6,1.6,0,0,0-.61,1.36c0,1.39-.06,2.72-.09,4.13Z" fill="#fcd268"></path><path d="M130.71,268.49a3.12,3.12,0,0,1,2.32-2.25,1.87,1.87,0,0,1,1.17.09c1.21.61.81,2.66,1.88,3.49a3,3,0,0,0,1.93.39,42.85,42.85,0,0,1,10.4,1.08c-.23,1-1.43,1.37-2.44,1.54a50.57,50.57,0,0,1-9,.67,1.17,1.17,0,0,0-.85.21c-.52.5.26,1.34,1,1.39s1.52-.21,2.1.21c0,1.07-1.43,1.41-2.5,1.43q-5.08.06-10.18,0a1.58,1.58,0,0,1-1-.21c-.53-.37-.45-1.19-.17-1.78a4.62,4.62,0,0,1,2.85-2.34,6.78,6.78,0,0,0-1.85-.77C128.19,270.47,130.1,270.93,130.71,268.49Z" fill="#fcd268"></path><path d="M287.83,181.22c1.29,3.1,2.34,6.42,2,9.76s-2.34,6.7-5.53,7.75c-9.94,3.3-17.09-13.14-16.15-21,.48-3.95,3.83-6.57,7.77-6.85C282.11,170.47,285.77,176.25,287.83,181.22Z" fill="#fff"></path><path d="M281.74,199.66a9.59,9.59,0,0,1-6.1-2.38c-5.39-4.4-8.65-14-8-19.58.48-4,3.86-7,8.23-7.29,5.06-.37,9.36,3.31,12.39,10.61,1.14,2.75,2.4,6.36,2,10-.32,3.21-2.25,7-5.86,8.18A8.72,8.72,0,0,1,281.74,199.66Zm-5.14-28.28q-.32,0-.63,0c-3.88.27-6.89,2.91-7.31,6.41-.64,5.24,2.55,14.55,7.62,18.69a7.94,7.94,0,0,0,7.88,1.75c3.18-1.06,4.89-4.44,5.18-7.33.34-3.42-.88-6.89-2-9.52h0C284.6,174.75,281,171.38,276.6,171.38Z" fill="#231f20"></path><path d="M268.92,185.41a.5.5,0,0,1-.48-.37c-.28-1,5.4-5.54,9.19-7.31a.5.5,0,0,1,.66.25.49.49,0,0,1-.24.66,29.18,29.18,0,0,0-8.64,6.36.49.49,0,0,1-.37.39Z" fill="#231f20"></path><path d="M272,192.6a.49.49,0,0,1-.41-.22.52.52,0,0,1-.07-.4c.15-.57,5.88-5.7,9.34-7.6a.5.5,0,1,1,.48.87,50.72,50.72,0,0,0-8.91,7.11.46.46,0,0,1-.15.16A.48.48,0,0,1,272,192.6Z" fill="#231f20"></path><path d="M277.54,198.38a.52.52,0,0,1-.21,0,.51.51,0,0,1-.25-.66c.1-.22,2.47-5.38,6.91-7.36a.5.5,0,1,1,.4.91c-4.09,1.82-6.38,6.81-6.4,6.86A.49.49,0,0,1,277.54,198.38Z" fill="#231f20"></path></g></svg>