<svg xmlns="http://www.w3.org/2000/svg" viewBox="0 0 400 300" width="406" height="306" class="illustration styles_illustrationTablet__1DWOa"><g id="_454_easter_balloon_flatline" data-name="#454_easter_balloon_flatline"><path d="M289.92,182.81c-.12-3,3.14-5.36,6.06-4.84s5.08,3.36,5.37,6.31a5.81,5.81,0,0,1,9.08,6.85l5.85,2.52c-7.53.35-15-1.2-22.55-1.2H271.29c-.13-.52,5.34-2.32,6.81-3.38s1.22-2.31,1.95-3.79C281.7,181.9,287,179.63,289.92,182.81Z" fill="#e6e7e8"></path><path d="M169,169.31a3.22,3.22,0,0,0-1.34-2.37,2.18,2.18,0,0,0-2.36.48,6.37,6.37,0,0,0-1.37,2.15,1.46,1.46,0,0,0-1.93-.84,4.21,4.21,0,0,0-1.77,1.53,7.91,7.91,0,0,0-1.38,2.2,2.73,2.73,0,0,0,.19,2.49,2.2,2.2,0,0,0-1.81,1.85,6.41,6.41,0,0,0,.28,2.74,15.82,15.82,0,0,0,1.34,3.81,5.25,5.25,0,0,0,3,2.56c2,.55,4.08-.55,5.58-2C172.32,179.33,170.27,175,169,169.31Z" fill="#fff"></path><path d="M163,186.56a4.45,4.45,0,0,1-1.23-.17,5.66,5.66,0,0,1-3.29-2.8,15.75,15.75,0,0,1-1.39-3.92,6.82,6.82,0,0,1-.29-3,2.91,2.91,0,0,1,1.58-2.08,3.41,3.41,0,0,1,.06-2.33,8.39,8.39,0,0,1,1.46-2.34,4.68,4.68,0,0,1,2-1.7,2.2,2.2,0,0,1,1.77.16,2,2,0,0,1,.24.16,5.4,5.4,0,0,1,1.11-1.52,2.7,2.7,0,0,1,2.93-.56,3.6,3.6,0,0,1,1.6,2.72c.17.81.36,1.59.55,2.35,1.13,4.61,2.1,8.59-2.26,12.73A7.59,7.59,0,0,1,163,186.56Zm-.4-17.42a1.1,1.1,0,0,0-.37.06,3.76,3.76,0,0,0-1.55,1.37,7.61,7.61,0,0,0-1.3,2.06,2.3,2.3,0,0,0,.13,2,.5.5,0,0,1,0,.5.5.5,0,0,1-.42.28,1.71,1.71,0,0,0-1.36,1.44,5.91,5.91,0,0,0,.28,2.53,15.08,15.08,0,0,0,1.29,3.68,4.79,4.79,0,0,0,2.69,2.33c2.2.61,4.31-1.1,5.11-1.86,3.94-3.75,3.07-7.29,2-11.78-.19-.76-.38-1.55-.56-2.37h0a2.86,2.86,0,0,0-1.07-2,1.74,1.74,0,0,0-1.81.41,6,6,0,0,0-1.25,2,.5.5,0,0,1-.51.28.49.49,0,0,1-.43-.39.64.64,0,0,0-.32-.39A1.27,1.27,0,0,0,162.58,169.14Z" fill="#231f20"></path><path d="M232.23,218.91s9.32,27.2,23.23,24.91-2.52-22.37-17.17-32.69" fill="#fff"></path><path d="M253.83,244.46c-5.34,0-10.71-4.1-15.63-12a75.34,75.34,0,0,1-6.45-13.42.51.51,0,0,1,.31-.64.51.51,0,0,1,.64.32c.09.26,9.32,26.76,22.68,24.58,2.7-.45,4.29-1.62,4.72-3.48,1.48-6.47-10.46-20.12-22.1-28.31a.5.5,0,0,1-.12-.7.49.49,0,0,1,.69-.12c10.55,7.43,24.24,21.76,22.5,29.36-.52,2.29-2.38,3.72-5.53,4.23A9.88,9.88,0,0,1,253.83,244.46Z" fill="#231f20"></path><path d="M239.22,215s12.57,11.49,16.68,17.43,1,9-3.41,8S235.41,219,235.41,219Z" fill="#e6e7e8"></path><path d="M238.61,184.79c-13.16-6-18.09-2.89-21-2-5.52-6.26-12-16-26.1-16.51-19.25-.62-30.27,9.7-29.63,21.62s20.86,23.48,20.86,23.48,28.77,12.27,32.25,9.19c.39-.35,10.22,12.18,25,.74C250.06,213.56,251.72,190.82,238.61,184.79Z" fill="#fff"></path><path d="M227.74,226.68q-6.31,0-12.32-5.16l-.4-.34c-4.58,2.46-29.57-8.07-32.47-9.31C181.67,211.36,162,200,161.39,188a18.45,18.45,0,0,1,5.41-14c5.46-5.58,14.23-8.48,24.74-8.12,12.7.41,19.25,8.18,24.52,14.42l1.71,2,.69-.25c3.16-1.17,8.43-3.14,20.36,2.35h0c5.32,2.44,8.69,7.69,9.5,14.79,1,8.88-2.28,18.17-8,22.61C236.05,225,231.85,226.68,227.74,226.68ZM215,220.08c.27,0,.58.26,1.07.69,7.5,6.44,15.45,6.5,23.62.18,5.39-4.17,8.6-13.3,7.64-21.71-.77-6.73-3.94-11.7-8.92-14h0c-11.56-5.31-16.59-3.44-19.6-2.32-.38.14-.72.27-1,.37a.5.5,0,0,1-.53-.15c-.63-.71-1.27-1.48-1.94-2.27-5.14-6.09-11.54-13.67-23.8-14.07-10.19-.32-18.72,2.45-24,7.83a17.47,17.47,0,0,0-5.13,13.26c.62,11.51,20.41,23,20.61,23.07,11,4.67,29.3,11.34,31.67,9.25A.48.48,0,0,1,215,220.08Z" fill="#231f20"></path><path d="M186.41,165.31h2.27a1.73,1.73,0,0,1,1.73,1.73V211.9a0,0,0,0,1,0,0h-5.73a0,0,0,0,1,0,0V167A1.73,1.73,0,0,1,186.41,165.31Z" fill="#231f20"></path><path d="M190.41,212.4h-5.73a.5.5,0,0,1-.5-.5V167a2.23,2.23,0,0,1,2.23-2.23h2.27a2.23,2.23,0,0,1,2.23,2.23V211.9A.51.51,0,0,1,190.41,212.4Zm-5.23-1h4.73V167a1.24,1.24,0,0,0-1.23-1.23h-2.27a1.23,1.23,0,0,0-1.23,1.23Z" fill="#231f20"></path><path d="M185.62,266.73a37.39,37.39,0,0,1-9.15-.17,31.26,31.26,0,0,1-4-.85,27.18,27.18,0,0,1-5.06-2,25.61,25.61,0,0,1-5.48-3.8c-5.39-4.89-8.56-12-9.33-20a32.25,32.25,0,0,1,2.48-16.56,25.51,25.51,0,0,1,3.06-5.12h0a26.1,26.1,0,0,1,8-6.83,34.56,34.56,0,0,1,13.83-4.11,51.18,51.18,0,0,1,13.84.64c.92.17,1.84.36,2.75.57,14.45,3.39,27.07,12.56,28.22,24.48,1.16,12.08-9.76,23.61-23.53,29.64-.84.36-1.69.71-2.55,1A50.59,50.59,0,0,1,185.62,266.73Z" fill="#38ced3"></path><path d="M184.41,207.07a52.51,52.51,0,0,1,9.34.85c.92.17,1.84.36,2.75.57,14.45,3.39,27.07,12.56,28.22,24.48,1.16,12.08-9.76,23.61-23.53,29.64-.84.36-1.69.71-2.55,1a50.59,50.59,0,0,1-13,3.09c-1.37.13-2.7.2-4,.2a34.2,34.2,0,0,1-5.15-.37,31.26,31.26,0,0,1-4-.85,27.18,27.18,0,0,1-5.06-2,25.61,25.61,0,0,1-5.48-3.8c-5.39-4.89-8.56-12-9.33-20a32.25,32.25,0,0,1,2.48-16.56,25.51,25.51,0,0,1,3.06-5.12h0a26.1,26.1,0,0,1,8-6.83,34.56,34.56,0,0,1,13.83-4.11c1.48-.14,3-.21,4.5-.21m0-1c-1.55,0-3.1.07-4.6.22a35.62,35.62,0,0,0-14.23,4.23,27,27,0,0,0-8.2,7,.39.39,0,0,0-.08.1,26.79,26.79,0,0,0-3.14,5.27A33.45,33.45,0,0,0,151.59,240c.82,8.53,4.16,15.67,9.66,20.66a26.35,26.35,0,0,0,5.7,3.95,28.74,28.74,0,0,0,5.23,2.06,32.21,32.21,0,0,0,4.15.88,36.39,36.39,0,0,0,5.29.38c1.33,0,2.71-.07,4.1-.2A51.7,51.7,0,0,0,199,264.58c.84-.32,1.72-.67,2.6-1.06,12.93-5.65,25.4-17.32,24.12-30.64-1.26-13.12-15.46-22.19-29-25.36-.91-.22-1.86-.41-2.8-.58a53.35,53.35,0,0,0-9.52-.87Z" fill="#231f20"></path><path d="M198.64,263.64a8.86,8.86,0,0,0-6-4.77c-1.78-.37-3.71-.35-5.21-1.51a4.29,4.29,0,0,1-1.36-4.79,6.49,6.49,0,0,1,3.29-3.76,15.83,15.83,0,0,1,3-1.15,7.39,7.39,0,0,0,2.68-1c1.43-1.28-1.49-2.49-2.37-2.63-1.76-.29-3.57-.19-5.25-.91-3.31-1.42-3.8-5.21-2.11-8.09,2.08-3.53,6.09-4.13,9.38-6.06.34-.2.89-.44.88-.86s-.46-.79-.71-1a6.89,6.89,0,0,0-2-1.14,22.85,22.85,0,0,0-5.25-1c-2.91-.39-8.06-1.05-7.7-5.1.35-3.76,4.46-5.58,7.55-6.63,1.82-.62,3.93-1.19,5.28-2.66a3.84,3.84,0,0,0,1.09-2.62c.92.17,1.84.36,2.75.57a8.21,8.21,0,0,1-4.31,5.73c-2,1.05-4.16,1.51-6.18,2.42-1.13.51-4.66,2.66-3.1,4.22C184,222,186.52,222,188,222.23a30.25,30.25,0,0,1,5.25,1,8.45,8.45,0,0,1,4.29,2.82,3.28,3.28,0,0,1-.43,4.54c-2.81,2.42-7.62,2.41-9.53,5.89-.75,1.36-.94,3.15.62,4s3.7.55,5.46,1a5.43,5.43,0,0,1,3.86,2.69,3.68,3.68,0,0,1-.53,4.42c-1.38,1.33-3.6,1.54-5.33,2.19-1.39.52-3.57,1.82-3.1,3.67.39,1.55,3,1.46,4.18,1.67a11.54,11.54,0,0,1,4.62,1.95,11.75,11.75,0,0,1,3.83,4.56C200.35,263,199.5,263.32,198.64,263.64Z" fill="#fff"></path><path d="M176.47,266.56a31.26,31.26,0,0,1-4-.85A58,58,0,0,1,166,253.5a63.17,63.17,0,0,1-3.85-19.95,105.72,105.72,0,0,1,.82-20.12,26.19,26.19,0,0,1,3.12-2c-.38,2-.66,4.08-.87,6.14a105.47,105.47,0,0,0,0,20.18,55.52,55.52,0,0,0,4.58,17.71A54.66,54.66,0,0,0,176.47,266.56Z" fill="#fff"></path><path d="M167.4,263.72a25.61,25.61,0,0,1-5.48-3.8,58.39,58.39,0,0,1-2.94-6.44,62.9,62.9,0,0,1-3.85-19.95c-.15-3.38-.19-6.78-.06-10.18a25.51,25.51,0,0,1,3.06-5.12,105.42,105.42,0,0,0,0,19.46,54.23,54.23,0,0,0,9.24,26Z" fill="#fff"></path><circle cx="177.47" cy="232.33" r="3.12" fill="#fff"></circle><circle cx="170.28" cy="222.88" r="3.12" fill="#fff"></circle><circle cx="170.54" cy="243.19" r="3.12" fill="#fff"></circle><circle cx="203.58" cy="236.87" r="3.12" fill="#fff"></circle><circle cx="179.22" cy="250.54" r="3.12" fill="#fff"></circle><circle cx="215.14" cy="247.08" r="3.12" fill="#fff"></circle><circle cx="213.39" cy="228.88" r="3.12" fill="#fff"></circle><circle cx="206.39" cy="221.34" r="3.12" fill="#fff"></circle><circle cx="180.23" cy="261.05" r="3.12" fill="#fff"></circle><circle cx="204.96" cy="251.2" r="3.12" fill="#fff"></circle><path d="M192.5,200.69s1.41,19,10,22.93,7.35-8.76,6.23-18.32a65.44,65.44,0,0,1-.09-16.18" fill="#fff"></path><path d="M205.28,224.84a7.44,7.44,0,0,1-3-.77c-8.72-4-10.19-22.55-10.25-23.34a.51.51,0,0,1,.47-.54.5.5,0,0,1,.53.47c0,.18,1.48,18.77,9.67,22.5,1.83.83,3.25.89,4.23.18,3.14-2.29,2-12.11,1.29-18a66.79,66.79,0,0,1-.08-16.32.49.49,0,0,1,.57-.41.51.51,0,0,1,.42.57,65.76,65.76,0,0,0,.08,16.05c1,8.23,1.64,16.47-1.69,18.9A3.65,3.65,0,0,1,205.28,224.84Z" fill="#231f20"></path><path d="M161.89,187.93s2,39.59,10.9,42.09c5.35,1.49,12.47-11.08,10.31-27.39" fill="#fff"></path><path d="M173.68,230.64a4,4,0,0,1-1-.14c-9.18-2.57-11.18-40.92-11.26-42.55a.5.5,0,0,1,.48-.52.49.49,0,0,1,.52.47c0,.4,2,39.26,10.53,41.63a4.13,4.13,0,0,0,3.67-1.2c4.09-3.56,7.59-13.75,6-25.64a.5.5,0,0,1,.43-.56.51.51,0,0,1,.56.43c1.64,12.36-2,22.7-6.35,26.52A5.52,5.52,0,0,1,173.68,230.64Z" fill="#231f20"></path><ellipse cx="233.03" cy="202.85" rx="0.87" ry="2.11" transform="translate(1.33 407.22) rotate(-82.45)" fill="#231f20"></ellipse><ellipse cx="231.3" cy="215.92" rx="0.87" ry="2.11" transform="translate(-13.13 416.85) rotate(-82.45)" fill="#231f20"></ellipse><path d="M228.25,211.41a2,2,0,0,1,.52-4c.76.1.93,1,.79,2.13S229,211.51,228.25,211.41Z" fill="#231f20"></path><path d="M225.17,215.22h-.08a3.14,3.14,0,0,1-2.71-3.7,3.18,3.18,0,0,1,2-2.75,3.53,3.53,0,0,1-.87-3c.39-2.31,3.14-2.85,3.26-2.88a.5.5,0,0,1,.58.4.5.5,0,0,1-.4.58s-2.18.44-2.45,2.07a2.66,2.66,0,0,0,1.3,2.72.52.52,0,0,1,.24.59.49.49,0,0,1-.53.35c-.18,0-1.84-.1-2.17,2.07a2.17,2.17,0,0,0,1.89,2.56.5.5,0,0,1-.08,1Z" fill="#231f20"></path><path d="M226.81,209.7h-.06l-1.05-.14a.51.51,0,0,1-.43-.56.5.5,0,0,1,.56-.43l1,.14a.51.51,0,0,1,.43.56A.51.51,0,0,1,226.81,209.7Z" fill="#231f20"></path><path d="M185.92,165.82c-2.63,0-7.17-.39-8-1.76-.21-.35-.39-1.07.73-1.94,3.93-3,9,2.54,9.25,2.78a.46.46,0,0,1,.12.43.51.51,0,0,1-.28.36A8,8,0,0,1,185.92,165.82Zm-4.65-3.58a3.19,3.19,0,0,0-2,.67c-.39.31-.53.53-.49.62.44.93,5.41,1.28,7.63,1.29C185.32,163.84,183.25,162.24,181.27,162.24Z" fill="#231f20"></path><path d="M187.54,165.73a.49.49,0,0,1-.44-.27.5.5,0,0,1,.09-.58c.58-.58,5.7-5.61,8.14-5.13a1.47,1.47,0,0,1,1.11.9,1.66,1.66,0,0,1-.07,1.49c-1.24,2.28-8,3.46-8.75,3.59Zm7.41-5c-1.25,0-3.82,1.93-5.79,3.69,2.6-.58,5.72-1.61,6.33-2.73a.68.68,0,0,0,0-.62.47.47,0,0,0-.38-.32Z" fill="#231f20"></path><path d="M185.07,135.19s-2,8.65-1,8.17a10.67,10.67,0,0,0,2.47-2.55s3.12,4.65,3.67,2.57l.56-2.08s1.88,3.63,3.12,1.69-3.08-7.8-3.08-7.8Z" fill="#38ced3"></path><path d="M189.71,144.41c-1,0-2.37-1.62-3.19-2.75a8.13,8.13,0,0,1-2.23,2.15.61.61,0,0,1-.67-.07c-.24-.19-.87-.69,1-8.66a.51.51,0,0,1,.49-.39h5.74a.49.49,0,0,1,.4.21c.76,1,4.46,6.24,3.1,8.36a1.44,1.44,0,0,1-1.32.8,3.12,3.12,0,0,1-2-1.51l-.25,1a1.07,1.07,0,0,1-.85.89Zm-3.17-4.1h0a.5.5,0,0,1,.41.22c1,1.52,2.31,2.88,2.73,2.88h0s0-.06,0-.16l.55-2.08a.51.51,0,0,1,.43-.37.48.48,0,0,1,.5.27c.41.79,1.27,2,1.82,2,.06,0,.22,0,.44-.33.71-1.11-1.24-4.71-2.92-7h-5.08a49,49,0,0,0-1.18,6.92,13,13,0,0,0,1.84-2.09A.51.51,0,0,1,186.54,140.31Zm-2.21,2.76Z" fill="#231f20"></path><path d="M236.05,76.43A64.64,64.64,0,0,1,229.73,103a71,71,0,0,1-9.54,15.23c-6.76,8.2-15.27,14.34-24.66,16.29a30.83,30.83,0,0,1-13.28-.13c-9.37-2.13-17.85-8.43-24.55-16.75a71.6,71.6,0,0,1-9.42-15.45,64.24,64.24,0,0,1-5.95-25.77,44.51,44.51,0,0,1,.37-5.83A40.82,40.82,0,0,1,157,44.24,48.23,48.23,0,0,1,183.16,33.4a54.57,54.57,0,0,1,6-.33c1.83,0,3.63.09,5.4.26a48.68,48.68,0,0,1,26.22,10.42,40.72,40.72,0,0,1,14.13,22.68A44.48,44.48,0,0,1,236.05,76.43Z" fill="#38ced3"></path><path d="M189.19,33.07c1.83,0,3.63.09,5.4.26a48.68,48.68,0,0,1,26.22,10.42,40.72,40.72,0,0,1,14.13,22.68,44.48,44.48,0,0,1,1.11,10A64.64,64.64,0,0,1,229.73,103a71,71,0,0,1-9.54,15.23c-6.76,8.2-15.27,14.34-24.66,16.29a30.83,30.83,0,0,1-13.28-.13c-9.37-2.13-17.85-8.43-24.55-16.75a71.6,71.6,0,0,1-9.42-15.45,64.24,64.24,0,0,1-5.95-25.77,44.51,44.51,0,0,1,.37-5.83A40.82,40.82,0,0,1,157,44.24,48.23,48.23,0,0,1,183.16,33.4a54.57,54.57,0,0,1,6-.33m0-1a54,54,0,0,0-6.14.34,49,49,0,0,0-26.72,11.07,41.61,41.61,0,0,0-14.62,27,44.12,44.12,0,0,0-.38,6,64.82,64.82,0,0,0,6,26.18,71.8,71.8,0,0,0,9.55,15.67c7.34,9.12,16,15,25.11,17.1a31.93,31.93,0,0,0,13.7.13c9.09-1.89,17.81-7.64,25.23-16.63a71.71,71.71,0,0,0,9.67-15.45,65.93,65.93,0,0,0,6.42-27,45.22,45.22,0,0,0-1.14-10.22A41.69,41.69,0,0,0,221.44,43a49.52,49.52,0,0,0-26.76-10.64c-1.83-.18-3.67-.27-5.49-.27Z" fill="#231f20"></path><path d="M187.54,167.26a.5.5,0,0,1-.5-.5V136.29a.51.51,0,0,1,.5-.5.5.5,0,0,1,.5.5v30.47A.5.5,0,0,1,187.54,167.26Z" fill="#231f20"></path><path d="M166.06,84.13c0,10.43-6.16,18.89-13.76,18.89a10.39,10.39,0,0,1-4-.82,64.24,64.24,0,0,1-5.95-25.77,44.51,44.51,0,0,1,.37-5.83c2.48-3.32,5.86-5.36,9.6-5.36C159.9,65.24,166.06,73.7,166.06,84.13Z" fill="#fff"></path><ellipse cx="189.19" cy="84.13" rx="13.77" ry="18.89" fill="#fff"></ellipse><path d="M184.31,41c0,10.43-6.17,18.89-13.77,18.89-6.78,0-12.43-6.74-13.56-15.61A48.23,48.23,0,0,1,183.16,33.4,24.84,24.84,0,0,1,184.31,41Z" fill="#fff"></path><path d="M220.81,43.75c-1,9.11-6.71,16.1-13.62,16.1-7.6,0-13.77-8.46-13.77-18.89a25,25,0,0,1,1.17-7.63A48.68,48.68,0,0,1,220.81,43.75Z" fill="#fff"></path><path d="M220.19,118.24c-6.76,8.2-15.27,14.34-24.66,16.29a24.13,24.13,0,0,1-2.11-10c0-10.43,6.17-18.89,13.77-18.89C213.2,105.59,218.31,110.87,220.19,118.24Z" fill="#fff"></path><path d="M184.31,124.48a24,24,0,0,1-2.06,9.92c-9.37-2.13-17.85-8.43-24.55-16.75,2-7.06,7-12.06,12.84-12.06C178.14,105.59,184.31,114.05,184.31,124.48Z" fill="#fff"></path><path d="M236.05,76.43A64.64,64.64,0,0,1,229.73,103c-7.42-.27-13.39-8.62-13.39-18.88,0-10.43,6.17-18.89,13.77-18.89a10.52,10.52,0,0,1,4.83,1.19A44.48,44.48,0,0,1,236.05,76.43Z" fill="#fff"></path><path d="M237.54,190.7c.72-.66,17.87-1.27,24.85,5.6s9,33.23-.43,29.34-10.24-21.09-10.24-21.09l-12.93-4.13" fill="#fff"></path><path d="M263.74,226.54a5.19,5.19,0,0,1-2-.44c-8.94-3.7-10.35-18.63-10.53-21.18l-12.6-4a.51.51,0,0,1-.33-.63.51.51,0,0,1,.63-.33l12.93,4.14a.49.49,0,0,1,.35.45c0,.17.94,16.92,9.94,20.65a2.94,2.94,0,0,0,4-1.13c3.58-5.41,1-22.31-4.14-27.4-6.49-6.39-22.82-6.21-24.22-5.54a.47.47,0,0,1-.68-.05.52.52,0,0,1,.06-.73c1.11-1,18.49-1.34,25.54,5.61,5.52,5.44,8.12,22.85,4.27,28.66A3.85,3.85,0,0,1,263.74,226.54Z" fill="#231f20"></path><path d="M241.39,197.56s13.69,4.58,14.13,5.4-1.27,13.18,4.74,15.55,3.35-13.86,1.42-17.36c-3.75-6.78-13.28-6.27-18.17-6.87Z" fill="#e6e7e8"></path><path d="M152.41,164.85a8.83,8.83,0,0,1-.37-1.58c-.42-3.12,0-6.57-1.38-9.25-2.18-4.21-7.22-3.84-11.24-3a30.45,30.45,0,0,0-2.62-10.41c-1.58-3.1-4.31-5.54-7.31-5.51a10,10,0,0,0-5.19,2c-4,2.65-7,8.28-11.36,9.59-4.81,1.43-9.53-.25-13.66,4.3-1.93,2.13-3.1,5.08-4.22,7.95.43-1.09-8.88-.85-9.67-.59a12.78,12.78,0,0,0-7.27,6.18c-.05.09-.08.17-.13.26Z" fill="#e6e7e8"></path><path d="M322,124.73a42,42,0,0,1-6.79-4.18c-4-2.76-10-4.72-13.22-1.08-.21-8.39-10.63-14.63-18.12-10.86-1.17-3.2-2.37-6.47-4.53-9.09s-5.53-4.52-8.89-4c-3.18.47-5.7,2.9-7.57,5.5a30.85,30.85,0,0,0-5.37,12.92c-4-3.2-10-2.81-14.41-.3s-7.63,6.75-10.4,11l.91.09Z" fill="#e6e7e8"></path></g></svg>